<svg width="1200" height="575" viewBox="0 0 1200 575" fill="none" xmlns="http://www.w3.org/2000/svg">
<rect x="950.371" y="176" width="110" height="30" rx="4" fill="#00307C"/>
<path d="M967.185 186.76V192.458C967.185 193.681 966.863 194.6 966.219 195.216C965.575 195.832 964.637 196.14 963.405 196.14C962.192 196.14 961.259 195.832 960.605 195.216C959.961 194.6 959.639 193.681 959.639 192.458V186.76H961.137V192.276C961.137 193.144 961.324 193.788 961.697 194.208C962.071 194.628 962.64 194.838 963.405 194.838C964.18 194.838 964.754 194.628 965.127 194.208C965.501 193.788 965.687 193.144 965.687 192.276V186.76H967.185ZM969.482 196V189H970.812L970.91 190.82L970.714 190.624C970.845 190.223 971.032 189.891 971.274 189.63C971.526 189.359 971.82 189.163 972.156 189.042C972.502 188.921 972.866 188.86 973.248 188.86C973.743 188.86 974.186 188.958 974.578 189.154C974.98 189.341 975.297 189.625 975.53 190.008C975.764 190.391 975.88 190.876 975.88 191.464V196H974.382V191.926C974.382 191.235 974.238 190.759 973.948 190.498C973.668 190.227 973.314 190.092 972.884 190.092C972.576 190.092 972.278 190.167 971.988 190.316C971.699 190.456 971.456 190.685 971.26 191.002C971.074 191.319 970.98 191.744 970.98 192.276V196H969.482ZM978.906 187.824C978.58 187.824 978.328 187.745 978.15 187.586C977.982 187.418 977.898 187.185 977.898 186.886C977.898 186.587 977.982 186.359 978.15 186.2C978.328 186.041 978.58 185.962 978.906 185.962C979.224 185.962 979.466 186.041 979.634 186.2C979.812 186.359 979.9 186.587 979.9 186.886C979.9 187.185 979.812 187.418 979.634 187.586C979.466 187.745 979.224 187.824 978.906 187.824ZM979.648 189V196H978.15V189H979.648ZM984.036 186.942V193.9C984.036 194.245 984.125 194.497 984.302 194.656C984.489 194.815 984.736 194.894 985.044 194.894C985.296 194.894 985.515 194.857 985.702 194.782C985.889 194.698 986.061 194.586 986.22 194.446L986.556 195.538C986.341 195.725 986.075 195.874 985.758 195.986C985.45 196.089 985.105 196.14 984.722 196.14C984.321 196.14 983.952 196.075 983.616 195.944C983.28 195.813 983.019 195.603 982.832 195.314C982.645 195.015 982.547 194.628 982.538 194.152V187.362L984.036 186.942ZM986.444 189V190.176H981.194V189H986.444ZM991.006 196.14C990.306 196.14 989.69 195.995 989.158 195.706C988.626 195.417 988.21 195.001 987.912 194.46C987.622 193.909 987.478 193.256 987.478 192.5C987.478 191.744 987.622 191.095 987.912 190.554C988.21 190.003 988.621 189.583 989.144 189.294C989.666 189.005 990.259 188.86 990.922 188.86C991.603 188.86 992.182 189 992.658 189.28C993.134 189.56 993.498 189.943 993.75 190.428C994.002 190.913 994.128 191.464 994.128 192.08C994.128 192.248 994.123 192.407 994.114 192.556C994.104 192.705 994.09 192.836 994.072 192.948H988.444V191.8H993.414L992.672 192.024C992.672 191.389 992.513 190.904 992.196 190.568C991.878 190.223 991.444 190.05 990.894 190.05C990.492 190.05 990.142 190.143 989.844 190.33C989.545 190.517 989.316 190.797 989.158 191.17C988.999 191.534 988.92 191.982 988.92 192.514C988.92 193.037 989.004 193.48 989.172 193.844C989.34 194.208 989.578 194.483 989.886 194.67C990.194 194.857 990.558 194.95 990.978 194.95C991.444 194.95 991.822 194.861 992.112 194.684C992.401 194.507 992.63 194.259 992.798 193.942L993.988 194.502C993.82 194.838 993.591 195.132 993.302 195.384C993.022 195.627 992.686 195.813 992.294 195.944C991.902 196.075 991.472 196.14 991.006 196.14ZM998.707 196.14C998.129 196.14 997.601 195.995 997.125 195.706C996.659 195.417 996.29 195.001 996.019 194.46C995.749 193.919 995.613 193.27 995.613 192.514C995.613 191.73 995.758 191.067 996.047 190.526C996.337 189.985 996.724 189.574 997.209 189.294C997.695 189.005 998.227 188.86 998.805 188.86C999.403 188.86 999.907 189.023 1000.32 189.35C1000.73 189.677 1001 190.101 1001.14 190.624L1000.98 190.778V185.85H1002.47V196H1001.14L1001.03 194.096L1001.23 194.11C1001.16 194.53 1001.01 194.894 1000.77 195.202C1000.52 195.501 1000.22 195.734 999.855 195.902C999.501 196.061 999.118 196.14 998.707 196.14ZM999.029 194.936C999.431 194.936 999.776 194.833 1000.07 194.628C1000.35 194.423 1000.58 194.133 1000.74 193.76C1000.9 193.387 1000.98 192.939 1000.98 192.416C1000.98 191.931 1000.9 191.515 1000.74 191.17C1000.58 190.815 1000.35 190.545 1000.07 190.358C999.785 190.171 999.459 190.078 999.085 190.078C998.46 190.078 997.975 190.293 997.629 190.722C997.284 191.151 997.111 191.744 997.111 192.5C997.111 193.256 997.279 193.853 997.615 194.292C997.951 194.721 998.423 194.936 999.029 194.936ZM1012.71 186.62C1013.54 186.62 1014.26 186.779 1014.87 187.096C1015.47 187.404 1015.99 187.861 1016.41 188.468L1015.4 189.434C1015.04 188.893 1014.64 188.505 1014.19 188.272C1013.75 188.029 1013.23 187.908 1012.63 187.908C1012.18 187.908 1011.81 187.969 1011.52 188.09C1011.23 188.211 1011.02 188.375 1010.88 188.58C1010.74 188.776 1010.68 189 1010.68 189.252C1010.68 189.541 1010.78 189.793 1010.97 190.008C1011.18 190.223 1011.56 190.391 1012.11 190.512L1013.98 190.932C1014.88 191.128 1015.51 191.427 1015.89 191.828C1016.26 192.229 1016.45 192.738 1016.45 193.354C1016.45 193.923 1016.29 194.418 1015.99 194.838C1015.68 195.258 1015.25 195.58 1014.7 195.804C1014.16 196.028 1013.52 196.14 1012.78 196.14C1012.13 196.14 1011.54 196.056 1011.02 195.888C1010.49 195.72 1010.04 195.491 1009.64 195.202C1009.25 194.913 1008.93 194.581 1008.68 194.208L1009.71 193.172C1009.91 193.499 1010.16 193.793 1010.46 194.054C1010.75 194.306 1011.1 194.502 1011.49 194.642C1011.89 194.782 1012.34 194.852 1012.82 194.852C1013.25 194.852 1013.62 194.801 1013.93 194.698C1014.24 194.595 1014.48 194.446 1014.64 194.25C1014.81 194.045 1014.89 193.802 1014.89 193.522C1014.89 193.251 1014.8 193.013 1014.61 192.808C1014.44 192.603 1014.1 192.444 1013.61 192.332L1011.58 191.87C1011.02 191.749 1010.55 191.576 1010.19 191.352C1009.83 191.128 1009.55 190.857 1009.38 190.54C1009.2 190.213 1009.11 189.849 1009.11 189.448C1009.11 188.925 1009.25 188.454 1009.53 188.034C1009.82 187.605 1010.24 187.264 1010.78 187.012C1011.32 186.751 1011.96 186.62 1012.71 186.62ZM1020.38 186.942V193.9C1020.38 194.245 1020.46 194.497 1020.64 194.656C1020.83 194.815 1021.08 194.894 1021.38 194.894C1021.64 194.894 1021.86 194.857 1022.04 194.782C1022.23 194.698 1022.4 194.586 1022.56 194.446L1022.9 195.538C1022.68 195.725 1022.42 195.874 1022.1 195.986C1021.79 196.089 1021.44 196.14 1021.06 196.14C1020.66 196.14 1020.29 196.075 1019.96 195.944C1019.62 195.813 1019.36 195.603 1019.17 195.314C1018.99 195.015 1018.89 194.628 1018.88 194.152V187.362L1020.38 186.942ZM1022.78 189V190.176H1017.53V189H1022.78ZM1028.35 191.506C1028.35 191.039 1028.22 190.68 1027.96 190.428C1027.71 190.167 1027.36 190.036 1026.91 190.036C1026.49 190.036 1026.13 190.134 1025.83 190.33C1025.53 190.526 1025.31 190.843 1025.17 191.282L1023.91 190.75C1024.09 190.181 1024.44 189.723 1024.95 189.378C1025.47 189.033 1026.15 188.86 1026.97 188.86C1027.53 188.86 1028.02 188.953 1028.45 189.14C1028.88 189.317 1029.22 189.588 1029.46 189.952C1029.71 190.316 1029.84 190.783 1029.84 191.352V194.474C1029.84 194.819 1030.01 194.992 1030.35 194.992C1030.52 194.992 1030.69 194.969 1030.84 194.922L1030.76 195.958C1030.55 196.061 1030.28 196.112 1029.95 196.112C1029.65 196.112 1029.38 196.061 1029.14 195.958C1028.9 195.846 1028.72 195.683 1028.58 195.468C1028.45 195.244 1028.38 194.969 1028.38 194.642V194.544L1028.69 194.53C1028.6 194.894 1028.43 195.197 1028.17 195.44C1027.91 195.673 1027.61 195.851 1027.26 195.972C1026.92 196.084 1026.57 196.14 1026.21 196.14C1025.77 196.14 1025.38 196.07 1025.02 195.93C1024.68 195.79 1024.4 195.58 1024.19 195.3C1024 195.011 1023.9 194.656 1023.9 194.236C1023.9 193.713 1024.07 193.284 1024.4 192.948C1024.75 192.612 1025.24 192.383 1025.86 192.262L1028.58 191.73L1028.56 192.78L1026.59 193.186C1026.2 193.261 1025.9 193.368 1025.71 193.508C1025.51 193.648 1025.41 193.853 1025.41 194.124C1025.41 194.385 1025.51 194.595 1025.71 194.754C1025.91 194.903 1026.18 194.978 1026.52 194.978C1026.75 194.978 1026.98 194.95 1027.19 194.894C1027.41 194.838 1027.62 194.749 1027.79 194.628C1027.97 194.497 1028.11 194.334 1028.2 194.138C1028.3 193.933 1028.35 193.69 1028.35 193.41V191.506ZM1034.06 186.942V193.9C1034.06 194.245 1034.15 194.497 1034.33 194.656C1034.51 194.815 1034.76 194.894 1035.07 194.894C1035.32 194.894 1035.54 194.857 1035.73 194.782C1035.91 194.698 1036.09 194.586 1036.25 194.446L1036.58 195.538C1036.37 195.725 1036.1 195.874 1035.78 195.986C1035.48 196.089 1035.13 196.14 1034.75 196.14C1034.35 196.14 1033.98 196.075 1033.64 195.944C1033.31 195.813 1033.04 195.603 1032.86 195.314C1032.67 195.015 1032.57 194.628 1032.56 194.152V187.362L1034.06 186.942ZM1036.47 189V190.176H1031.22V189H1036.47ZM1041.03 196.14C1040.33 196.14 1039.72 195.995 1039.18 195.706C1038.65 195.417 1038.24 195.001 1037.94 194.46C1037.65 193.909 1037.5 193.256 1037.5 192.5C1037.5 191.744 1037.65 191.095 1037.94 190.554C1038.24 190.003 1038.65 189.583 1039.17 189.294C1039.69 189.005 1040.28 188.86 1040.95 188.86C1041.63 188.86 1042.21 189 1042.68 189.28C1043.16 189.56 1043.52 189.943 1043.78 190.428C1044.03 190.913 1044.15 191.464 1044.15 192.08C1044.15 192.248 1044.15 192.407 1044.14 192.556C1044.13 192.705 1044.12 192.836 1044.1 192.948H1038.47V191.8H1043.44L1042.7 192.024C1042.7 191.389 1042.54 190.904 1042.22 190.568C1041.9 190.223 1041.47 190.05 1040.92 190.05C1040.52 190.05 1040.17 190.143 1039.87 190.33C1039.57 190.517 1039.34 190.797 1039.18 191.17C1039.02 191.534 1038.95 191.982 1038.95 192.514C1038.95 193.037 1039.03 193.48 1039.2 193.844C1039.37 194.208 1039.6 194.483 1039.91 194.67C1040.22 194.857 1040.58 194.95 1041 194.95C1041.47 194.95 1041.85 194.861 1042.14 194.684C1042.43 194.507 1042.66 194.259 1042.82 193.942L1044.01 194.502C1043.85 194.838 1043.62 195.132 1043.33 195.384C1043.05 195.627 1042.71 195.813 1042.32 195.944C1041.93 196.075 1041.5 196.14 1041.03 196.14ZM1048.7 196.14C1048 196.14 1047.37 196.005 1046.79 195.734C1046.21 195.463 1045.75 195.081 1045.41 194.586L1046.45 193.69C1046.66 194.073 1046.95 194.381 1047.33 194.614C1047.72 194.838 1048.19 194.95 1048.73 194.95C1049.16 194.95 1049.5 194.875 1049.75 194.726C1050.01 194.577 1050.13 194.367 1050.13 194.096C1050.13 193.919 1050.07 193.765 1049.95 193.634C1049.84 193.494 1049.62 193.387 1049.29 193.312L1047.82 193.004C1047.08 192.855 1046.54 192.617 1046.23 192.29C1045.91 191.954 1045.75 191.529 1045.75 191.016C1045.75 190.633 1045.86 190.279 1046.09 189.952C1046.31 189.625 1046.64 189.364 1047.07 189.168C1047.51 188.963 1048.03 188.86 1048.63 188.86C1049.33 188.86 1049.93 188.986 1050.43 189.238C1050.92 189.481 1051.3 189.831 1051.56 190.288L1050.52 191.156C1050.35 190.783 1050.09 190.507 1049.74 190.33C1049.4 190.143 1049.04 190.05 1048.66 190.05C1048.36 190.05 1048.11 190.087 1047.89 190.162C1047.68 190.237 1047.51 190.339 1047.4 190.47C1047.29 190.601 1047.23 190.755 1047.23 190.932C1047.23 191.119 1047.3 191.282 1047.44 191.422C1047.58 191.562 1047.84 191.669 1048.2 191.744L1049.8 192.08C1050.47 192.211 1050.94 192.435 1051.21 192.752C1051.49 193.06 1051.63 193.438 1051.63 193.886C1051.63 194.334 1051.51 194.731 1051.28 195.076C1051.05 195.412 1050.71 195.673 1050.27 195.86C1049.83 196.047 1049.31 196.14 1048.7 196.14Z" fill="white"/>
<rect x="999.871" y="212.5" width="11" height="11" rx="5.5" fill="white" stroke="#00307C" stroke-width="3"/>
<rect x="434" y="210" width="101" height="30" rx="4" fill="#00307C"/>
<path d="M446.981 220.62C447.812 220.62 448.53 220.779 449.137 221.096C449.744 221.404 450.257 221.861 450.677 222.468L449.669 223.434C449.314 222.893 448.913 222.505 448.465 222.272C448.026 222.029 447.504 221.908 446.897 221.908C446.449 221.908 446.08 221.969 445.791 222.09C445.502 222.211 445.287 222.375 445.147 222.58C445.016 222.776 444.951 223 444.951 223.252C444.951 223.541 445.049 223.793 445.245 224.008C445.45 224.223 445.828 224.391 446.379 224.512L448.255 224.932C449.151 225.128 449.786 225.427 450.159 225.828C450.532 226.229 450.719 226.738 450.719 227.354C450.719 227.923 450.565 228.418 450.257 228.838C449.949 229.258 449.52 229.58 448.969 229.804C448.428 230.028 447.788 230.14 447.051 230.14C446.398 230.14 445.81 230.056 445.287 229.888C444.764 229.72 444.307 229.491 443.915 229.202C443.523 228.913 443.201 228.581 442.949 228.208L443.985 227.172C444.181 227.499 444.428 227.793 444.727 228.054C445.026 228.306 445.371 228.502 445.763 228.642C446.164 228.782 446.608 228.852 447.093 228.852C447.522 228.852 447.891 228.801 448.199 228.698C448.516 228.595 448.754 228.446 448.913 228.25C449.081 228.045 449.165 227.802 449.165 227.522C449.165 227.251 449.072 227.013 448.885 226.808C448.708 226.603 448.372 226.444 447.877 226.332L445.847 225.87C445.287 225.749 444.825 225.576 444.461 225.352C444.097 225.128 443.826 224.857 443.649 224.54C443.472 224.213 443.383 223.849 443.383 223.448C443.383 222.925 443.523 222.454 443.803 222.034C444.092 221.605 444.508 221.264 445.049 221.012C445.59 220.751 446.234 220.62 446.981 220.62ZM455.641 222.86C456.323 222.86 456.925 223.005 457.447 223.294C457.97 223.583 458.376 224.003 458.665 224.554C458.964 225.095 459.113 225.744 459.113 226.5C459.113 227.256 458.964 227.909 458.665 228.46C458.376 229.001 457.97 229.417 457.447 229.706C456.925 229.995 456.323 230.14 455.641 230.14C454.96 230.14 454.358 229.995 453.835 229.706C453.313 229.417 452.902 229.001 452.603 228.46C452.305 227.909 452.155 227.256 452.155 226.5C452.155 225.744 452.305 225.095 452.603 224.554C452.902 224.003 453.313 223.583 453.835 223.294C454.358 223.005 454.96 222.86 455.641 222.86ZM455.641 224.036C455.221 224.036 454.862 224.134 454.563 224.33C454.274 224.517 454.05 224.792 453.891 225.156C453.733 225.52 453.653 225.968 453.653 226.5C453.653 227.023 453.733 227.471 453.891 227.844C454.05 228.208 454.274 228.488 454.563 228.684C454.862 228.871 455.221 228.964 455.641 228.964C456.061 228.964 456.416 228.871 456.705 228.684C456.995 228.488 457.219 228.208 457.377 227.844C457.536 227.471 457.615 227.023 457.615 226.5C457.615 225.968 457.536 225.52 457.377 225.156C457.219 224.792 456.995 224.517 456.705 224.33C456.416 224.134 456.061 224.036 455.641 224.036ZM463.49 230.14C463.033 230.14 462.608 230.056 462.216 229.888C461.833 229.72 461.525 229.449 461.292 229.076C461.059 228.703 460.942 228.217 460.942 227.62V223H462.44V227.242C462.44 227.877 462.575 228.315 462.846 228.558C463.117 228.791 463.495 228.908 463.98 228.908C464.213 228.908 464.437 228.871 464.652 228.796C464.876 228.712 465.077 228.586 465.254 228.418C465.431 228.241 465.567 228.017 465.66 227.746C465.763 227.475 465.814 227.158 465.814 226.794V223H467.312V230H465.996L465.926 228.866C465.683 229.305 465.357 229.627 464.946 229.832C464.535 230.037 464.05 230.14 463.49 230.14ZM471.696 220.942V227.9C471.696 228.245 471.785 228.497 471.962 228.656C472.149 228.815 472.396 228.894 472.704 228.894C472.956 228.894 473.176 228.857 473.362 228.782C473.549 228.698 473.722 228.586 473.88 228.446L474.216 229.538C474.002 229.725 473.736 229.874 473.418 229.986C473.11 230.089 472.765 230.14 472.382 230.14C471.981 230.14 471.612 230.075 471.276 229.944C470.94 229.813 470.679 229.603 470.492 229.314C470.306 229.015 470.208 228.628 470.198 228.152V221.362L471.696 220.942ZM474.104 223V224.176H468.854V223H474.104ZM475.641 230V219.85H477.139V224.12C477.372 223.681 477.685 223.364 478.077 223.168C478.478 222.963 478.921 222.86 479.407 222.86C479.901 222.86 480.345 222.958 480.737 223.154C481.138 223.341 481.455 223.625 481.689 224.008C481.922 224.391 482.039 224.876 482.039 225.464V230H480.541V225.94C480.541 225.249 480.396 224.769 480.107 224.498C479.827 224.227 479.472 224.092 479.043 224.092C478.744 224.092 478.445 224.167 478.147 224.316C477.857 224.456 477.615 224.689 477.419 225.016C477.232 225.333 477.139 225.763 477.139 226.304V230H475.641ZM496.645 220.76L492.529 225.212L492.361 225.226L489.967 227.802L489.827 226.164L494.811 220.76H496.645ZM490.569 220.76V230H489.071V220.76H490.569ZM492.837 224.064L496.729 230H494.965L491.647 224.904L492.837 224.064ZM500.649 222.86C501.331 222.86 501.933 223.005 502.455 223.294C502.978 223.583 503.384 224.003 503.673 224.554C503.972 225.095 504.121 225.744 504.121 226.5C504.121 227.256 503.972 227.909 503.673 228.46C503.384 229.001 502.978 229.417 502.455 229.706C501.933 229.995 501.331 230.14 500.649 230.14C499.968 230.14 499.366 229.995 498.843 229.706C498.321 229.417 497.91 229.001 497.611 228.46C497.313 227.909 497.163 227.256 497.163 226.5C497.163 225.744 497.313 225.095 497.611 224.554C497.91 224.003 498.321 223.583 498.843 223.294C499.366 223.005 499.968 222.86 500.649 222.86ZM500.649 224.036C500.229 224.036 499.87 224.134 499.571 224.33C499.282 224.517 499.058 224.792 498.899 225.156C498.741 225.52 498.661 225.968 498.661 226.5C498.661 227.023 498.741 227.471 498.899 227.844C499.058 228.208 499.282 228.488 499.571 228.684C499.87 228.871 500.229 228.964 500.649 228.964C501.069 228.964 501.424 228.871 501.713 228.684C502.003 228.488 502.227 228.208 502.385 227.844C502.544 227.471 502.623 227.023 502.623 226.5C502.623 225.968 502.544 225.52 502.385 225.156C502.227 224.792 502.003 224.517 501.713 224.33C501.424 224.134 501.069 224.036 500.649 224.036ZM506.006 230V223H507.28L507.42 224.26C507.606 223.803 507.882 223.457 508.246 223.224C508.619 222.981 509.076 222.86 509.618 222.86C509.758 222.86 509.898 222.874 510.038 222.902C510.178 222.921 510.294 222.953 510.388 223L510.178 224.316C510.075 224.279 509.958 224.251 509.828 224.232C509.706 224.204 509.538 224.19 509.324 224.19C509.034 224.19 508.75 224.269 508.47 224.428C508.19 224.577 507.956 224.806 507.77 225.114C507.592 225.422 507.504 225.814 507.504 226.29V230H506.006ZM514.705 230.14C514.005 230.14 513.389 229.995 512.857 229.706C512.325 229.417 511.91 229.001 511.611 228.46C511.322 227.909 511.177 227.256 511.177 226.5C511.177 225.744 511.322 225.095 511.611 224.554C511.91 224.003 512.32 223.583 512.843 223.294C513.366 223.005 513.958 222.86 514.621 222.86C515.302 222.86 515.881 223 516.357 223.28C516.833 223.56 517.197 223.943 517.449 224.428C517.701 224.913 517.827 225.464 517.827 226.08C517.827 226.248 517.822 226.407 517.813 226.556C517.804 226.705 517.79 226.836 517.771 226.948H512.143V225.8H517.113L516.371 226.024C516.371 225.389 516.212 224.904 515.895 224.568C515.578 224.223 515.144 224.05 514.593 224.05C514.192 224.05 513.842 224.143 513.543 224.33C513.244 224.517 513.016 224.797 512.857 225.17C512.698 225.534 512.619 225.982 512.619 226.514C512.619 227.037 512.703 227.48 512.871 227.844C513.039 228.208 513.277 228.483 513.585 228.67C513.893 228.857 514.257 228.95 514.677 228.95C515.144 228.95 515.522 228.861 515.811 228.684C516.1 228.507 516.329 228.259 516.497 227.942L517.687 228.502C517.519 228.838 517.29 229.132 517.001 229.384C516.721 229.627 516.385 229.813 515.993 229.944C515.601 230.075 515.172 230.14 514.705 230.14ZM523.765 225.506C523.765 225.039 523.634 224.68 523.373 224.428C523.121 224.167 522.771 224.036 522.323 224.036C521.903 224.036 521.543 224.134 521.245 224.33C520.946 224.526 520.727 224.843 520.587 225.282L519.327 224.75C519.504 224.181 519.849 223.723 520.363 223.378C520.885 223.033 521.557 222.86 522.379 222.86C522.939 222.86 523.433 222.953 523.863 223.14C524.292 223.317 524.628 223.588 524.871 223.952C525.123 224.316 525.249 224.783 525.249 225.352V228.474C525.249 228.819 525.421 228.992 525.767 228.992C525.935 228.992 526.098 228.969 526.257 228.922L526.173 229.958C525.958 230.061 525.687 230.112 525.361 230.112C525.062 230.112 524.791 230.061 524.549 229.958C524.315 229.846 524.129 229.683 523.989 229.468C523.858 229.244 523.793 228.969 523.793 228.642V228.544L524.101 228.53C524.017 228.894 523.844 229.197 523.583 229.44C523.321 229.673 523.018 229.851 522.673 229.972C522.327 230.084 521.977 230.14 521.623 230.14C521.184 230.14 520.787 230.07 520.433 229.93C520.087 229.79 519.812 229.58 519.607 229.3C519.411 229.011 519.313 228.656 519.313 228.236C519.313 227.713 519.481 227.284 519.817 226.948C520.162 226.612 520.647 226.383 521.273 226.262L523.989 225.73L523.975 226.78L522.001 227.186C521.609 227.261 521.315 227.368 521.119 227.508C520.923 227.648 520.825 227.853 520.825 228.124C520.825 228.385 520.923 228.595 521.119 228.754C521.324 228.903 521.595 228.978 521.931 228.978C522.164 228.978 522.388 228.95 522.603 228.894C522.827 228.838 523.027 228.749 523.205 228.628C523.382 228.497 523.517 228.334 523.611 228.138C523.713 227.933 523.765 227.69 523.765 227.41V225.506Z" fill="white"/>
<rect x="479" y="246.5" width="11" height="11" rx="5.5" fill="white" stroke="#00307C" stroke-width="3"/>
<rect y="143" width="126" height="30" rx="4" fill="#00307C"/>
<path d="M16.9323 153.76V159.458C16.9323 160.681 16.6103 161.6 15.9663 162.216C15.3223 162.832 14.3843 163.14 13.1523 163.14C11.939 163.14 11.0056 162.832 10.3523 162.216C9.70829 161.6 9.38629 160.681 9.38629 159.458V153.76H10.8843V159.276C10.8843 160.144 11.071 160.788 11.4443 161.208C11.8176 161.628 12.387 161.838 13.1523 161.838C13.927 161.838 14.501 161.628 14.8743 161.208C15.2476 160.788 15.4343 160.144 15.4343 159.276V153.76H16.9323ZM19.2294 163V156H20.5594L20.6574 157.82L20.4614 157.624C20.592 157.223 20.7787 156.891 21.0214 156.63C21.2734 156.359 21.5674 156.163 21.9034 156.042C22.2487 155.921 22.6127 155.86 22.9954 155.86C23.49 155.86 23.9334 155.958 24.3254 156.154C24.7267 156.341 25.044 156.625 25.2774 157.008C25.5107 157.391 25.6274 157.876 25.6274 158.464V163H24.1294V158.926C24.1294 158.235 23.9847 157.759 23.6954 157.498C23.4154 157.227 23.0607 157.092 22.6314 157.092C22.3234 157.092 22.0247 157.167 21.7354 157.316C21.446 157.456 21.2034 157.685 21.0074 158.002C20.8207 158.319 20.7274 158.744 20.7274 159.276V163H19.2294ZM28.6534 154.824C28.3267 154.824 28.0747 154.745 27.8974 154.586C27.7294 154.418 27.6454 154.185 27.6454 153.886C27.6454 153.587 27.7294 153.359 27.8974 153.2C28.0747 153.041 28.3267 152.962 28.6534 152.962C28.9707 152.962 29.2134 153.041 29.3814 153.2C29.5587 153.359 29.6474 153.587 29.6474 153.886C29.6474 154.185 29.5587 154.418 29.3814 154.586C29.2134 154.745 28.9707 154.824 28.6534 154.824ZM29.3954 156V163H27.8974V156H29.3954ZM33.7831 153.942V160.9C33.7831 161.245 33.8718 161.497 34.0491 161.656C34.2358 161.815 34.4831 161.894 34.7911 161.894C35.0431 161.894 35.2625 161.857 35.4491 161.782C35.6358 161.698 35.8085 161.586 35.9671 161.446L36.3031 162.538C36.0885 162.725 35.8225 162.874 35.5051 162.986C35.1971 163.089 34.8518 163.14 34.4691 163.14C34.0678 163.14 33.6991 163.075 33.3631 162.944C33.0271 162.813 32.7658 162.603 32.5791 162.314C32.3925 162.015 32.2945 161.628 32.2851 161.152V154.362L33.7831 153.942ZM36.1911 156V157.176H30.9411V156H36.1911ZM40.7527 163.14C40.0527 163.14 39.4367 162.995 38.9047 162.706C38.3727 162.417 37.9574 162.001 37.6587 161.46C37.3694 160.909 37.2247 160.256 37.2247 159.5C37.2247 158.744 37.3694 158.095 37.6587 157.554C37.9574 157.003 38.3681 156.583 38.8907 156.294C39.4134 156.005 40.0061 155.86 40.6687 155.86C41.3501 155.86 41.9287 156 42.4047 156.28C42.8807 156.56 43.2447 156.943 43.4967 157.428C43.7487 157.913 43.8747 158.464 43.8747 159.08C43.8747 159.248 43.8701 159.407 43.8607 159.556C43.8514 159.705 43.8374 159.836 43.8187 159.948H38.1907V158.8H43.1607L42.4187 159.024C42.4187 158.389 42.2601 157.904 41.9427 157.568C41.6254 157.223 41.1914 157.05 40.6407 157.05C40.2394 157.05 39.8894 157.143 39.5907 157.33C39.2921 157.517 39.0634 157.797 38.9047 158.17C38.7461 158.534 38.6667 158.982 38.6667 159.514C38.6667 160.037 38.7507 160.48 38.9187 160.844C39.0867 161.208 39.3247 161.483 39.6327 161.67C39.9407 161.857 40.3047 161.95 40.7247 161.95C41.1914 161.95 41.5694 161.861 41.8587 161.684C42.1481 161.507 42.3767 161.259 42.5447 160.942L43.7347 161.502C43.5667 161.838 43.3381 162.132 43.0487 162.384C42.7687 162.627 42.4327 162.813 42.0407 162.944C41.6487 163.075 41.2194 163.14 40.7527 163.14ZM48.4545 163.14C47.8758 163.14 47.3485 162.995 46.8725 162.706C46.4058 162.417 46.0372 162.001 45.7665 161.46C45.4958 160.919 45.3605 160.27 45.3605 159.514C45.3605 158.73 45.5052 158.067 45.7945 157.526C46.0838 156.985 46.4712 156.574 46.9565 156.294C47.4418 156.005 47.9738 155.86 48.5525 155.86C49.1498 155.86 49.6538 156.023 50.0645 156.35C50.4752 156.677 50.7505 157.101 50.8905 157.624L50.7225 157.778V152.85H52.2205V163H50.8905L50.7785 161.096L50.9745 161.11C50.9092 161.53 50.7552 161.894 50.5125 162.202C50.2698 162.501 49.9665 162.734 49.6025 162.902C49.2478 163.061 48.8652 163.14 48.4545 163.14ZM48.7765 161.936C49.1778 161.936 49.5232 161.833 49.8125 161.628C50.1018 161.423 50.3258 161.133 50.4845 160.76C50.6432 160.387 50.7225 159.939 50.7225 159.416C50.7225 158.931 50.6432 158.515 50.4845 158.17C50.3258 157.815 50.1018 157.545 49.8125 157.358C49.5325 157.171 49.2058 157.078 48.8325 157.078C48.2072 157.078 47.7218 157.293 47.3765 157.722C47.0312 158.151 46.8585 158.744 46.8585 159.5C46.8585 160.256 47.0265 160.853 47.3625 161.292C47.6985 161.721 48.1698 161.936 48.7765 161.936ZM66.8806 153.76L62.7646 158.212L62.5966 158.226L60.2026 160.802L60.0626 159.164L65.0466 153.76H66.8806ZM60.8046 153.76V163H59.3066V153.76H60.8046ZM63.0726 157.064L66.9646 163H65.2006L61.8826 157.904L63.0726 157.064ZM69.1905 154.824C68.8638 154.824 68.6118 154.745 68.4345 154.586C68.2665 154.418 68.1825 154.185 68.1825 153.886C68.1825 153.587 68.2665 153.359 68.4345 153.2C68.6118 153.041 68.8638 152.962 69.1905 152.962C69.5078 152.962 69.7505 153.041 69.9185 153.2C70.0958 153.359 70.1845 153.587 70.1845 153.886C70.1845 154.185 70.0958 154.418 69.9185 154.586C69.7505 154.745 69.5078 154.824 69.1905 154.824ZM69.9325 156V163H68.4345V156H69.9325ZM72.2763 163V156H73.6063L73.7043 157.82L73.5083 157.624C73.6389 157.223 73.8256 156.891 74.0683 156.63C74.3203 156.359 74.6143 156.163 74.9503 156.042C75.2956 155.921 75.6596 155.86 76.0423 155.86C76.5369 155.86 76.9803 155.958 77.3723 156.154C77.7736 156.341 78.0909 156.625 78.3243 157.008C78.5576 157.391 78.6743 157.876 78.6743 158.464V163H77.1763V158.926C77.1763 158.235 77.0316 157.759 76.7423 157.498C76.4623 157.227 76.1076 157.092 75.6783 157.092C75.3703 157.092 75.0716 157.167 74.7823 157.316C74.4929 157.456 74.2503 157.685 74.0543 158.002C73.8676 158.319 73.7743 158.744 73.7743 159.276V163H72.2763ZM87.1042 154.53L87.3422 155.706C87.3142 155.706 87.2862 155.706 87.2582 155.706C87.2302 155.697 87.2022 155.692 87.1742 155.692C86.7262 155.692 86.3856 155.79 86.1522 155.986C85.9189 156.173 85.8022 156.448 85.8022 156.812L85.0742 156.476C85.0742 156.103 85.1536 155.771 85.3122 155.482C85.4709 155.183 85.6949 154.95 85.9842 154.782C86.2829 154.614 86.6189 154.53 86.9922 154.53C87.0109 154.53 87.0296 154.53 87.0482 154.53C87.0669 154.53 87.0856 154.53 87.1042 154.53ZM84.8922 161.908C85.6016 161.908 86.1522 162.067 86.5442 162.384C86.9362 162.692 87.1322 163.121 87.1322 163.672C87.1322 164.157 86.9782 164.573 86.6702 164.918C86.3622 165.273 85.9422 165.543 85.4102 165.73C84.8876 165.917 84.2856 166.01 83.6042 166.01C82.4562 166.01 81.6069 165.833 81.0562 165.478C80.5056 165.123 80.2302 164.68 80.2302 164.148C80.2302 163.775 80.3609 163.448 80.6222 163.168C80.8929 162.888 81.3456 162.729 81.9802 162.692L81.8962 162.916C81.5042 162.832 81.1869 162.683 80.9442 162.468C80.7109 162.244 80.5942 161.931 80.5942 161.53C80.5942 161.129 80.7482 160.788 81.0562 160.508C81.3642 160.228 81.7982 160.065 82.3582 160.018L83.1422 160.396H82.9742C82.5449 160.433 82.2416 160.531 82.0642 160.69C81.8869 160.849 81.7982 161.026 81.7982 161.222C81.7982 161.455 81.8822 161.628 82.0502 161.74C82.2276 161.852 82.4749 161.908 82.7922 161.908H84.8922ZM83.6042 164.89C84.1176 164.89 84.5376 164.839 84.8642 164.736C85.2002 164.643 85.4476 164.517 85.6062 164.358C85.7742 164.209 85.8582 164.041 85.8582 163.854C85.8582 163.639 85.7696 163.467 85.5922 163.336C85.4242 163.205 85.1162 163.14 84.6682 163.14H82.4142C82.1529 163.14 81.9336 163.205 81.7562 163.336C81.5789 163.476 81.4902 163.663 81.4902 163.896C81.4902 164.204 81.6769 164.447 82.0502 164.624C82.4236 164.801 82.9416 164.89 83.6042 164.89ZM83.5482 155.86C84.1642 155.86 84.6962 155.958 85.1442 156.154C85.6016 156.35 85.9516 156.625 86.1942 156.98C86.4462 157.335 86.5722 157.75 86.5722 158.226C86.5722 158.702 86.4462 159.117 86.1942 159.472C85.9516 159.827 85.6016 160.102 85.1442 160.298C84.6962 160.494 84.1642 160.592 83.5482 160.592C82.5776 160.592 81.8309 160.377 81.3082 159.948C80.7949 159.509 80.5382 158.935 80.5382 158.226C80.5382 157.75 80.6642 157.335 80.9162 156.98C81.1682 156.625 81.5182 156.35 81.9662 156.154C82.4236 155.958 82.9509 155.86 83.5482 155.86ZM83.5482 156.91C83.1189 156.91 82.7596 157.031 82.4702 157.274C82.1902 157.507 82.0502 157.825 82.0502 158.226C82.0502 158.627 82.1902 158.949 82.4702 159.192C82.7596 159.435 83.1189 159.556 83.5482 159.556C83.9869 159.556 84.3462 159.435 84.6262 159.192C84.9156 158.949 85.0602 158.627 85.0602 158.226C85.0602 157.825 84.9156 157.507 84.6262 157.274C84.3462 157.031 83.9869 156.91 83.5482 156.91ZM91.1928 163.14C90.6141 163.14 90.0868 162.995 89.6108 162.706C89.1441 162.417 88.7754 162.001 88.5048 161.46C88.2341 160.919 88.0988 160.27 88.0988 159.514C88.0988 158.73 88.2434 158.067 88.5328 157.526C88.8221 156.985 89.2094 156.574 89.6948 156.294C90.1801 156.005 90.7121 155.86 91.2908 155.86C91.8881 155.86 92.3921 156.023 92.8028 156.35C93.2134 156.677 93.4888 157.101 93.6288 157.624L93.4608 157.778V152.85H94.9588V163H93.6288L93.5168 161.096L93.7128 161.11C93.6474 161.53 93.4934 161.894 93.2508 162.202C93.0081 162.501 92.7048 162.734 92.3408 162.902C91.9861 163.061 91.6034 163.14 91.1928 163.14ZM91.5148 161.936C91.9161 161.936 92.2614 161.833 92.5508 161.628C92.8401 161.423 93.0641 161.133 93.2228 160.76C93.3814 160.387 93.4608 159.939 93.4608 159.416C93.4608 158.931 93.3814 158.515 93.2228 158.17C93.0641 157.815 92.8401 157.545 92.5508 157.358C92.2708 157.171 91.9441 157.078 91.5708 157.078C90.9454 157.078 90.4601 157.293 90.1148 157.722C89.7694 158.151 89.5968 158.744 89.5968 159.5C89.5968 160.256 89.7648 160.853 90.1008 161.292C90.4368 161.721 90.9081 161.936 91.5148 161.936ZM100.32 155.86C101.001 155.86 101.603 156.005 102.126 156.294C102.649 156.583 103.055 157.003 103.344 157.554C103.643 158.095 103.792 158.744 103.792 159.5C103.792 160.256 103.643 160.909 103.344 161.46C103.055 162.001 102.649 162.417 102.126 162.706C101.603 162.995 101.001 163.14 100.32 163.14C99.6388 163.14 99.0368 162.995 98.5141 162.706C97.9915 162.417 97.5808 162.001 97.2821 161.46C96.9835 160.909 96.8341 160.256 96.8341 159.5C96.8341 158.744 96.9835 158.095 97.2821 157.554C97.5808 157.003 97.9915 156.583 98.5141 156.294C99.0368 156.005 99.6388 155.86 100.32 155.86ZM100.32 157.036C99.9001 157.036 99.5408 157.134 99.2421 157.33C98.9528 157.517 98.7288 157.792 98.5701 158.156C98.4115 158.52 98.3321 158.968 98.3321 159.5C98.3321 160.023 98.4115 160.471 98.5701 160.844C98.7288 161.208 98.9528 161.488 99.2421 161.684C99.5408 161.871 99.9001 161.964 100.32 161.964C100.74 161.964 101.095 161.871 101.384 161.684C101.673 161.488 101.897 161.208 102.056 160.844C102.215 160.471 102.294 160.023 102.294 159.5C102.294 158.968 102.215 158.52 102.056 158.156C101.897 157.792 101.673 157.517 101.384 157.33C101.095 157.134 100.74 157.036 100.32 157.036ZM105.677 163V156H107.007L107.077 157.176C107.319 156.728 107.641 156.397 108.043 156.182C108.453 155.967 108.887 155.86 109.345 155.86C109.849 155.86 110.311 155.977 110.731 156.21C111.16 156.434 111.482 156.775 111.697 157.232C111.846 156.924 112.051 156.667 112.313 156.462C112.574 156.257 112.863 156.107 113.181 156.014C113.498 155.911 113.811 155.86 114.119 155.86C114.567 155.86 114.987 155.953 115.379 156.14C115.771 156.327 116.088 156.611 116.331 156.994C116.573 157.377 116.695 157.867 116.695 158.464V163H115.197V158.702C115.197 158.133 115.061 157.722 114.791 157.47C114.52 157.218 114.175 157.092 113.755 157.092C113.428 157.092 113.125 157.171 112.845 157.33C112.574 157.489 112.355 157.727 112.187 158.044C112.019 158.352 111.935 158.735 111.935 159.192V163H110.437V158.702C110.437 158.133 110.301 157.722 110.031 157.47C109.76 157.218 109.415 157.092 108.995 157.092C108.715 157.092 108.435 157.167 108.155 157.316C107.875 157.465 107.641 157.699 107.455 158.016C107.268 158.333 107.175 158.753 107.175 159.276V163H105.677Z" fill="white"/>
<rect x="57.5" y="179.5" width="11" height="11" rx="5.5" fill="white" stroke="#00307C" stroke-width="3"/>
<rect x="522" y="444" width="78" height="30" rx="4" fill="#00307C"/>
<path d="M539.528 464H537.946L537.064 461.578H533.186L532.304 464H530.764L534.25 454.76H536.042L539.528 464ZM533.606 460.36H536.644L535.132 456.048L533.606 460.36ZM543.353 464.14C542.896 464.14 542.471 464.056 542.079 463.888C541.697 463.72 541.389 463.449 541.155 463.076C540.922 462.703 540.805 462.217 540.805 461.62V457H542.303V461.242C542.303 461.877 542.439 462.315 542.709 462.558C542.98 462.791 543.358 462.908 543.843 462.908C544.077 462.908 544.301 462.871 544.515 462.796C544.739 462.712 544.94 462.586 545.117 462.418C545.295 462.241 545.43 462.017 545.523 461.746C545.626 461.475 545.677 461.158 545.677 460.794V457H547.175V464H545.859L545.789 462.866C545.547 463.305 545.22 463.627 544.809 463.832C544.399 464.037 543.913 464.14 543.353 464.14ZM552.176 464.14C551.476 464.14 550.836 464.005 550.258 463.734C549.679 463.463 549.222 463.081 548.886 462.586L549.922 461.69C550.127 462.073 550.421 462.381 550.804 462.614C551.196 462.838 551.662 462.95 552.204 462.95C552.633 462.95 552.974 462.875 553.226 462.726C553.478 462.577 553.604 462.367 553.604 462.096C553.604 461.919 553.543 461.765 553.422 461.634C553.31 461.494 553.09 461.387 552.764 461.312L551.294 461.004C550.547 460.855 550.015 460.617 549.698 460.29C549.38 459.954 549.222 459.529 549.222 459.016C549.222 458.633 549.334 458.279 549.558 457.952C549.782 457.625 550.108 457.364 550.538 457.168C550.976 456.963 551.499 456.86 552.106 456.86C552.806 456.86 553.403 456.986 553.898 457.238C554.392 457.481 554.77 457.831 555.032 458.288L553.996 459.156C553.818 458.783 553.557 458.507 553.212 458.33C552.866 458.143 552.507 458.05 552.134 458.05C551.835 458.05 551.578 458.087 551.364 458.162C551.149 458.237 550.986 458.339 550.874 458.47C550.762 458.601 550.706 458.755 550.706 458.932C550.706 459.119 550.776 459.282 550.916 459.422C551.056 459.562 551.308 459.669 551.672 459.744L553.268 460.08C553.94 460.211 554.411 460.435 554.682 460.752C554.962 461.06 555.102 461.438 555.102 461.886C555.102 462.334 554.985 462.731 554.752 463.076C554.518 463.412 554.182 463.673 553.744 463.86C553.305 464.047 552.782 464.14 552.176 464.14ZM558.97 454.942V461.9C558.97 462.245 559.058 462.497 559.236 462.656C559.422 462.815 559.67 462.894 559.978 462.894C560.23 462.894 560.449 462.857 560.636 462.782C560.822 462.698 560.995 462.586 561.154 462.446L561.49 463.538C561.275 463.725 561.009 463.874 560.692 463.986C560.384 464.089 560.038 464.14 559.656 464.14C559.254 464.14 558.886 464.075 558.55 463.944C558.214 463.813 557.952 463.603 557.766 463.314C557.579 463.015 557.481 462.628 557.472 462.152V455.362L558.97 454.942ZM561.378 457V458.176H556.128V457H561.378ZM562.859 464V457H564.133L564.273 458.26C564.46 457.803 564.735 457.457 565.099 457.224C565.473 456.981 565.93 456.86 566.471 456.86C566.611 456.86 566.751 456.874 566.891 456.902C567.031 456.921 567.148 456.953 567.241 457L567.031 458.316C566.929 458.279 566.812 458.251 566.681 458.232C566.56 458.204 566.392 458.19 566.177 458.19C565.888 458.19 565.603 458.269 565.323 458.428C565.043 458.577 564.81 458.806 564.623 459.114C564.446 459.422 564.357 459.814 564.357 460.29V464H562.859ZM572.552 459.506C572.552 459.039 572.421 458.68 572.16 458.428C571.908 458.167 571.558 458.036 571.11 458.036C570.69 458.036 570.33 458.134 570.032 458.33C569.733 458.526 569.514 458.843 569.374 459.282L568.114 458.75C568.291 458.181 568.636 457.723 569.15 457.378C569.672 457.033 570.344 456.86 571.166 456.86C571.726 456.86 572.22 456.953 572.65 457.14C573.079 457.317 573.415 457.588 573.658 457.952C573.91 458.316 574.036 458.783 574.036 459.352V462.474C574.036 462.819 574.208 462.992 574.554 462.992C574.722 462.992 574.885 462.969 575.044 462.922L574.96 463.958C574.745 464.061 574.474 464.112 574.148 464.112C573.849 464.112 573.578 464.061 573.336 463.958C573.102 463.846 572.916 463.683 572.776 463.468C572.645 463.244 572.58 462.969 572.58 462.642V462.544L572.888 462.53C572.804 462.894 572.631 463.197 572.37 463.44C572.108 463.673 571.805 463.851 571.46 463.972C571.114 464.084 570.764 464.14 570.41 464.14C569.971 464.14 569.574 464.07 569.22 463.93C568.874 463.79 568.599 463.58 568.394 463.3C568.198 463.011 568.1 462.656 568.1 462.236C568.1 461.713 568.268 461.284 568.604 460.948C568.949 460.612 569.434 460.383 570.06 460.262L572.776 459.73L572.762 460.78L570.788 461.186C570.396 461.261 570.102 461.368 569.906 461.508C569.71 461.648 569.612 461.853 569.612 462.124C569.612 462.385 569.71 462.595 569.906 462.754C570.111 462.903 570.382 462.978 570.718 462.978C570.951 462.978 571.175 462.95 571.39 462.894C571.614 462.838 571.814 462.749 571.992 462.628C572.169 462.497 572.304 462.334 572.398 462.138C572.5 461.933 572.552 461.69 572.552 461.41V459.506ZM577.946 453.85V462.04C577.946 462.385 578.007 462.623 578.128 462.754C578.249 462.885 578.45 462.95 578.73 462.95C578.898 462.95 579.038 462.941 579.15 462.922C579.271 462.894 579.421 462.847 579.598 462.782L579.43 463.902C579.271 463.977 579.089 464.033 578.884 464.07C578.679 464.117 578.473 464.14 578.268 464.14C577.643 464.14 577.181 463.981 576.882 463.664C576.593 463.337 576.448 462.838 576.448 462.166V453.85H577.946ZM581.607 455.824C581.281 455.824 581.029 455.745 580.851 455.586C580.683 455.418 580.599 455.185 580.599 454.886C580.599 454.587 580.683 454.359 580.851 454.2C581.029 454.041 581.281 453.962 581.607 453.962C581.925 453.962 582.167 454.041 582.335 454.2C582.513 454.359 582.601 454.587 582.601 454.886C582.601 455.185 582.513 455.418 582.335 455.586C582.167 455.745 581.925 455.824 581.607 455.824ZM582.349 457V464H580.851V457H582.349ZM588.739 459.506C588.739 459.039 588.609 458.68 588.347 458.428C588.095 458.167 587.745 458.036 587.297 458.036C586.877 458.036 586.518 458.134 586.219 458.33C585.921 458.526 585.701 458.843 585.561 459.282L584.301 458.75C584.479 458.181 584.824 457.723 585.337 457.378C585.86 457.033 586.532 456.86 587.353 456.86C587.913 456.86 588.408 456.953 588.837 457.14C589.267 457.317 589.603 457.588 589.845 457.952C590.097 458.316 590.223 458.783 590.223 459.352V462.474C590.223 462.819 590.396 462.992 590.741 462.992C590.909 462.992 591.073 462.969 591.231 462.922L591.147 463.958C590.933 464.061 590.662 464.112 590.335 464.112C590.037 464.112 589.766 464.061 589.523 463.958C589.29 463.846 589.103 463.683 588.963 463.468C588.833 463.244 588.767 462.969 588.767 462.642V462.544L589.075 462.53C588.991 462.894 588.819 463.197 588.557 463.44C588.296 463.673 587.993 463.851 587.647 463.972C587.302 464.084 586.952 464.14 586.597 464.14C586.159 464.14 585.762 464.07 585.407 463.93C585.062 463.79 584.787 463.58 584.581 463.3C584.385 463.011 584.287 462.656 584.287 462.236C584.287 461.713 584.455 461.284 584.791 460.948C585.137 460.612 585.622 460.383 586.247 460.262L588.963 459.73L588.949 460.78L586.975 461.186C586.583 461.261 586.289 461.368 586.093 461.508C585.897 461.648 585.799 461.853 585.799 462.124C585.799 462.385 585.897 462.595 586.093 462.754C586.299 462.903 586.569 462.978 586.905 462.978C587.139 462.978 587.363 462.95 587.577 462.894C587.801 462.838 588.002 462.749 588.179 462.628C588.357 462.497 588.492 462.334 588.585 462.138C588.688 461.933 588.739 461.69 588.739 461.41V459.506Z" fill="white"/>
<rect x="555.5" y="480.5" width="11" height="11" rx="5.5" fill="white" stroke="#00307C" stroke-width="3"/>
<rect x="372" y="300" width="84" height="30" rx="4" fill="#00307C"/>
<path d="M384.588 310.62C385.419 310.62 386.138 310.779 386.744 311.096C387.351 311.404 387.864 311.861 388.284 312.468L387.276 313.434C386.922 312.893 386.52 312.505 386.072 312.272C385.634 312.029 385.111 311.908 384.504 311.908C384.056 311.908 383.688 311.969 383.398 312.09C383.109 312.211 382.894 312.375 382.754 312.58C382.624 312.776 382.558 313 382.558 313.252C382.558 313.541 382.656 313.793 382.852 314.008C383.058 314.223 383.436 314.391 383.986 314.512L385.862 314.932C386.758 315.128 387.393 315.427 387.766 315.828C388.14 316.229 388.326 316.738 388.326 317.354C388.326 317.923 388.172 318.418 387.864 318.838C387.556 319.258 387.127 319.58 386.576 319.804C386.035 320.028 385.396 320.14 384.658 320.14C384.005 320.14 383.417 320.056 382.894 319.888C382.372 319.72 381.914 319.491 381.522 319.202C381.13 318.913 380.808 318.581 380.556 318.208L381.592 317.172C381.788 317.499 382.036 317.793 382.334 318.054C382.633 318.306 382.978 318.502 383.37 318.642C383.772 318.782 384.215 318.852 384.7 318.852C385.13 318.852 385.498 318.801 385.806 318.698C386.124 318.595 386.362 318.446 386.52 318.25C386.688 318.045 386.772 317.802 386.772 317.522C386.772 317.251 386.679 317.013 386.492 316.808C386.315 316.603 385.979 316.444 385.484 316.332L383.454 315.87C382.894 315.749 382.432 315.576 382.068 315.352C381.704 315.128 381.434 314.857 381.256 314.54C381.079 314.213 380.99 313.849 380.99 313.448C380.99 312.925 381.13 312.454 381.41 312.034C381.7 311.605 382.115 311.264 382.656 311.012C383.198 310.751 383.842 310.62 384.588 310.62ZM390.912 311.824C390.585 311.824 390.333 311.745 390.156 311.586C389.988 311.418 389.904 311.185 389.904 310.886C389.904 310.587 389.988 310.359 390.156 310.2C390.333 310.041 390.585 309.962 390.912 309.962C391.229 309.962 391.472 310.041 391.64 310.2C391.817 310.359 391.906 310.587 391.906 310.886C391.906 311.185 391.817 311.418 391.64 311.586C391.472 311.745 391.229 311.824 390.912 311.824ZM391.654 313V320H390.156V313H391.654ZM393.998 320V313H395.328L395.426 314.82L395.23 314.624C395.361 314.223 395.547 313.891 395.79 313.63C396.042 313.359 396.336 313.163 396.672 313.042C397.017 312.921 397.381 312.86 397.764 312.86C398.259 312.86 398.702 312.958 399.094 313.154C399.495 313.341 399.813 313.625 400.046 314.008C400.279 314.391 400.396 314.876 400.396 315.464V320H398.898V315.926C398.898 315.235 398.753 314.759 398.464 314.498C398.184 314.227 397.829 314.092 397.4 314.092C397.092 314.092 396.793 314.167 396.504 314.316C396.215 314.456 395.972 314.685 395.776 315.002C395.589 315.319 395.496 315.744 395.496 316.276V320H393.998ZM408.826 311.53L409.064 312.706C409.036 312.706 409.008 312.706 408.98 312.706C408.952 312.697 408.924 312.692 408.896 312.692C408.448 312.692 408.107 312.79 407.874 312.986C407.641 313.173 407.524 313.448 407.524 313.812L406.796 313.476C406.796 313.103 406.875 312.771 407.034 312.482C407.193 312.183 407.417 311.95 407.706 311.782C408.005 311.614 408.341 311.53 408.714 311.53C408.733 311.53 408.751 311.53 408.77 311.53C408.789 311.53 408.807 311.53 408.826 311.53ZM406.614 318.908C407.323 318.908 407.874 319.067 408.266 319.384C408.658 319.692 408.854 320.121 408.854 320.672C408.854 321.157 408.7 321.573 408.392 321.918C408.084 322.273 407.664 322.543 407.132 322.73C406.609 322.917 406.007 323.01 405.326 323.01C404.178 323.01 403.329 322.833 402.778 322.478C402.227 322.123 401.952 321.68 401.952 321.148C401.952 320.775 402.083 320.448 402.344 320.168C402.615 319.888 403.067 319.729 403.702 319.692L403.618 319.916C403.226 319.832 402.909 319.683 402.666 319.468C402.433 319.244 402.316 318.931 402.316 318.53C402.316 318.129 402.47 317.788 402.778 317.508C403.086 317.228 403.52 317.065 404.08 317.018L404.864 317.396H404.696C404.267 317.433 403.963 317.531 403.786 317.69C403.609 317.849 403.52 318.026 403.52 318.222C403.52 318.455 403.604 318.628 403.772 318.74C403.949 318.852 404.197 318.908 404.514 318.908H406.614ZM405.326 321.89C405.839 321.89 406.259 321.839 406.586 321.736C406.922 321.643 407.169 321.517 407.328 321.358C407.496 321.209 407.58 321.041 407.58 320.854C407.58 320.639 407.491 320.467 407.314 320.336C407.146 320.205 406.838 320.14 406.39 320.14H404.136C403.875 320.14 403.655 320.205 403.478 320.336C403.301 320.476 403.212 320.663 403.212 320.896C403.212 321.204 403.399 321.447 403.772 321.624C404.145 321.801 404.663 321.89 405.326 321.89ZM405.27 312.86C405.886 312.86 406.418 312.958 406.866 313.154C407.323 313.35 407.673 313.625 407.916 313.98C408.168 314.335 408.294 314.75 408.294 315.226C408.294 315.702 408.168 316.117 407.916 316.472C407.673 316.827 407.323 317.102 406.866 317.298C406.418 317.494 405.886 317.592 405.27 317.592C404.299 317.592 403.553 317.377 403.03 316.948C402.517 316.509 402.26 315.935 402.26 315.226C402.26 314.75 402.386 314.335 402.638 313.98C402.89 313.625 403.24 313.35 403.688 313.154C404.145 312.958 404.673 312.86 405.27 312.86ZM405.27 313.91C404.841 313.91 404.481 314.031 404.192 314.274C403.912 314.507 403.772 314.825 403.772 315.226C403.772 315.627 403.912 315.949 404.192 316.192C404.481 316.435 404.841 316.556 405.27 316.556C405.709 316.556 406.068 316.435 406.348 316.192C406.637 315.949 406.782 315.627 406.782 315.226C406.782 314.825 406.637 314.507 406.348 314.274C406.068 314.031 405.709 313.91 405.27 313.91ZM414.272 315.506C414.272 315.039 414.142 314.68 413.88 314.428C413.628 314.167 413.278 314.036 412.83 314.036C412.41 314.036 412.051 314.134 411.752 314.33C411.454 314.526 411.234 314.843 411.094 315.282L409.834 314.75C410.012 314.181 410.357 313.723 410.87 313.378C411.393 313.033 412.065 312.86 412.886 312.86C413.446 312.86 413.941 312.953 414.37 313.14C414.8 313.317 415.136 313.588 415.378 313.952C415.63 314.316 415.756 314.783 415.756 315.352V318.474C415.756 318.819 415.929 318.992 416.274 318.992C416.442 318.992 416.606 318.969 416.764 318.922L416.68 319.958C416.466 320.061 416.195 320.112 415.868 320.112C415.57 320.112 415.299 320.061 415.056 319.958C414.823 319.846 414.636 319.683 414.496 319.468C414.366 319.244 414.3 318.969 414.3 318.642V318.544L414.608 318.53C414.524 318.894 414.352 319.197 414.09 319.44C413.829 319.673 413.526 319.851 413.18 319.972C412.835 320.084 412.485 320.14 412.13 320.14C411.692 320.14 411.295 320.07 410.94 319.93C410.595 319.79 410.32 319.58 410.114 319.3C409.918 319.011 409.82 318.656 409.82 318.236C409.82 317.713 409.988 317.284 410.324 316.948C410.67 316.612 411.155 316.383 411.78 316.262L414.496 315.73L414.482 316.78L412.508 317.186C412.116 317.261 411.822 317.368 411.626 317.508C411.43 317.648 411.332 317.853 411.332 318.124C411.332 318.385 411.43 318.595 411.626 318.754C411.832 318.903 412.102 318.978 412.438 318.978C412.672 318.978 412.896 318.95 413.11 318.894C413.334 318.838 413.535 318.749 413.712 318.628C413.89 318.497 414.025 318.334 414.118 318.138C414.221 317.933 414.272 317.69 414.272 317.41V315.506ZM418.211 322.94V313H419.541L419.653 314.96L419.457 314.722C419.569 314.358 419.741 314.036 419.975 313.756C420.208 313.476 420.497 313.257 420.843 313.098C421.197 312.939 421.585 312.86 422.005 312.86C422.574 312.86 423.092 313.005 423.559 313.294C424.025 313.583 424.394 313.999 424.665 314.54C424.935 315.072 425.071 315.721 425.071 316.486C425.071 317.251 424.931 317.909 424.651 318.46C424.38 319.001 424.007 319.417 423.531 319.706C423.064 319.995 422.541 320.14 421.963 320.14C421.365 320.14 420.857 319.986 420.437 319.678C420.017 319.361 419.718 318.959 419.541 318.474L419.709 318.236V322.94H418.211ZM421.641 318.922C422.247 318.922 422.719 318.707 423.055 318.278C423.4 317.849 423.573 317.256 423.573 316.5C423.573 315.744 423.405 315.151 423.069 314.722C422.733 314.283 422.266 314.064 421.669 314.064C421.277 314.064 420.931 314.167 420.633 314.372C420.343 314.568 420.115 314.848 419.947 315.212C419.788 315.567 419.709 315.996 419.709 316.5C419.709 316.995 419.788 317.424 419.947 317.788C420.105 318.152 420.329 318.432 420.619 318.628C420.908 318.824 421.249 318.922 421.641 318.922ZM430.026 312.86C430.708 312.86 431.31 313.005 431.832 313.294C432.355 313.583 432.761 314.003 433.05 314.554C433.349 315.095 433.498 315.744 433.498 316.5C433.498 317.256 433.349 317.909 433.05 318.46C432.761 319.001 432.355 319.417 431.832 319.706C431.31 319.995 430.708 320.14 430.026 320.14C429.345 320.14 428.743 319.995 428.22 319.706C427.698 319.417 427.287 319.001 426.988 318.46C426.69 317.909 426.54 317.256 426.54 316.5C426.54 315.744 426.69 315.095 426.988 314.554C427.287 314.003 427.698 313.583 428.22 313.294C428.743 313.005 429.345 312.86 430.026 312.86ZM430.026 314.036C429.606 314.036 429.247 314.134 428.948 314.33C428.659 314.517 428.435 314.792 428.276 315.156C428.118 315.52 428.038 315.968 428.038 316.5C428.038 317.023 428.118 317.471 428.276 317.844C428.435 318.208 428.659 318.488 428.948 318.684C429.247 318.871 429.606 318.964 430.026 318.964C430.446 318.964 430.801 318.871 431.09 318.684C431.38 318.488 431.604 318.208 431.762 317.844C431.921 317.471 432 317.023 432 316.5C432 315.968 431.921 315.52 431.762 315.156C431.604 314.792 431.38 314.517 431.09 314.33C430.801 314.134 430.446 314.036 430.026 314.036ZM435.383 320V313H436.657L436.797 314.26C436.983 313.803 437.259 313.457 437.623 313.224C437.996 312.981 438.453 312.86 438.995 312.86C439.135 312.86 439.275 312.874 439.415 312.902C439.555 312.921 439.671 312.953 439.765 313L439.555 314.316C439.452 314.279 439.335 314.251 439.205 314.232C439.083 314.204 438.915 314.19 438.701 314.19C438.411 314.19 438.127 314.269 437.847 314.428C437.567 314.577 437.333 314.806 437.147 315.114C436.969 315.422 436.881 315.814 436.881 316.29V320H435.383ZM444.082 320.14C443.382 320.14 442.766 319.995 442.234 319.706C441.702 319.417 441.287 319.001 440.988 318.46C440.699 317.909 440.554 317.256 440.554 316.5C440.554 315.744 440.699 315.095 440.988 314.554C441.287 314.003 441.697 313.583 442.22 313.294C442.743 313.005 443.335 312.86 443.998 312.86C444.679 312.86 445.258 313 445.734 313.28C446.21 313.56 446.574 313.943 446.826 314.428C447.078 314.913 447.204 315.464 447.204 316.08C447.204 316.248 447.199 316.407 447.19 316.556C447.181 316.705 447.167 316.836 447.148 316.948H441.52V315.8H446.49L445.748 316.024C445.748 315.389 445.589 314.904 445.272 314.568C444.955 314.223 444.521 314.05 443.97 314.05C443.569 314.05 443.219 314.143 442.92 314.33C442.621 314.517 442.393 314.797 442.234 315.17C442.075 315.534 441.996 315.982 441.996 316.514C441.996 317.037 442.08 317.48 442.248 317.844C442.416 318.208 442.654 318.483 442.962 318.67C443.27 318.857 443.634 318.95 444.054 318.95C444.521 318.95 444.899 318.861 445.188 318.684C445.477 318.507 445.706 318.259 445.874 317.942L447.064 318.502C446.896 318.838 446.667 319.132 446.378 319.384C446.098 319.627 445.762 319.813 445.37 319.944C444.978 320.075 444.549 320.14 444.082 320.14Z" fill="white"/>
<rect x="408.5" y="336.5" width="11" height="11" rx="5.5" fill="white" stroke="#00307C" stroke-width="3"/>
</svg>
