<svg width="120" height="36" viewBox="0 0 120 36" fill="none" xmlns="http://www.w3.org/2000/svg">
<g clip-path="url(#clip0_1702_175)">
<path fill-rule="evenodd" clip-rule="evenodd" d="M106.81 20.8875C106.81 18.4171 105.127 16.9574 103.067 16.9574C100.708 16.9574 99.2481 18.6411 99.2481 20.9621C99.1891 23.0331 100.82 24.76 102.891 24.819C102.95 24.8206 103.009 24.8208 103.067 24.8197C105.127 24.8197 106.81 23.2467 106.81 20.8875ZM112.766 29.96L107.149 30.0074V27.3429C106.514 29.291 104.155 30.5069 101.872 30.5069C96.855 30.5069 93.0356 26.9133 93.0356 20.7753C93.0356 15.1253 97.0044 11.1161 101.759 11.1161C104.304 11.1161 106.252 12.7184 106.813 14.1784V11.4664H112.766V29.96Z" fill="black"/>
<path fill-rule="evenodd" clip-rule="evenodd" d="M92 23.7433C92 28.1137 88.8297 31 83.3158 31C78.5219 31 76.2554 29.2045 75.0484 26.4327C74.9712 26.1588 74.9712 25.9247 75.1616 25.8475L79.2762 24.2089C79.4107 24.1649 79.5563 24.2311 79.6158 24.3634C80.0323 25.5338 81.2777 26.4702 82.6749 26.4702C84.3733 26.4702 85.1296 25.7679 85.1296 24.9088C85.1296 23.8554 84.337 23.3079 81.4294 22.5679C77.8425 21.6316 75.3496 20.3045 75.3496 16.4023C75.3496 12.3034 78.5968 10 83.8456 10C88.0372 10 90.5281 11.6386 91.2822 14.2136C91.3207 14.4477 91.3207 14.6818 91.0942 14.7613L86.9027 16.2946C86.6762 16.4117 86.64 16.4117 86.4883 16.1776C85.8452 15.1242 84.8647 14.4219 83.6192 14.4219C82.145 14.4219 81.5042 14.9275 81.5042 15.7866C81.5042 16.5685 82.3737 16.9196 85.6187 17.6219C89.3959 18.4014 92 20.0726 92 23.7433Z" fill="black"/>
<path fill-rule="evenodd" clip-rule="evenodd" d="M66.712 20.8875C66.712 18.4171 65.0261 16.9574 62.9672 16.9574C60.61 16.9574 59.1501 18.6411 59.1501 20.9621C59.0895 23.0318 60.7188 24.7587 62.7887 24.819C62.8481 24.8206 62.9076 24.8208 62.9672 24.8197C65.0261 24.8197 66.712 23.2467 66.712 20.8875ZM72.6673 29.96L67.051 30.0074V27.3429C66.4139 29.291 64.0565 30.5069 61.7718 30.5069C56.7546 30.5069 52.9375 26.9133 52.9375 20.7753C52.9375 15.1253 56.9061 11.1161 61.6611 11.1161C64.2056 11.1161 66.1517 12.7184 66.7145 14.1784V11.4664H72.6673V29.96Z" fill="black"/>
<path fill-rule="evenodd" clip-rule="evenodd" d="M46.2888 10.8737H46.1243L46.0309 11.0115L40.5534 18.8882L40.5667 6.31858V6.00452H40.2578L34.3312 6H34.0222V6.31407L34 29.6746V29.991H34.309L40.2355 29.9932L40.5445 29.9955V29.6814L40.5512 22.781L45.2951 29.8622L45.3862 30H45.5507H51.9596H52.5398L52.2175 29.5097L46.3065 20.5396L52.671 11.3707L53 10.8804H52.4154L46.2888 10.8737Z" fill="black"/>
<path fill-rule="evenodd" clip-rule="evenodd" d="M0 3.48266L9.59822 0V29.432L0 32.9124V3.48266ZM12.2377 22.2947L12.2104 11.4691L23.2754 7.70622V18.6039L16.8615 20.7487L23.2754 22.9135V33.7844L12.2377 30.1209V22.2947Z" fill="black"/>
</g>
<defs>
<clipPath id="clip0_1702_175">
<rect width="120" height="36" fill="white"/>
</clipPath>
</defs>
</svg>
