<svg width="120" height="36" viewBox="0 0 120 36" fill="none" xmlns="http://www.w3.org/2000/svg">
<path fill-rule="evenodd" clip-rule="evenodd" d="M113.426 22.183C113.426 19.5595 111.638 18.0094 109.452 18.0094C106.946 18.0094 105.396 19.7974 105.396 22.2622C105.333 24.4615 107.065 26.2954 109.265 26.358C109.327 26.3597 109.389 26.3599 109.452 26.3587C111.638 26.3587 113.426 24.6883 113.426 22.183ZM119.751 31.8169L113.786 31.8673V29.0377C113.112 31.1065 110.606 32.3977 108.183 32.3977C102.854 32.3977 98.7985 28.5814 98.7985 22.0633C98.7985 16.0633 103.013 11.8057 108.063 11.8057C110.765 11.8057 112.834 13.5073 113.429 15.0577V12.1777H119.751V31.8169Z" fill="white"/>
<path fill-rule="evenodd" clip-rule="evenodd" d="M97.3241 25.0943C97.3241 29.5751 93.9641 32.5343 88.1201 32.5343C83.0393 32.5343 80.6371 30.6935 79.3579 27.8517C79.2761 27.5709 79.2761 27.3309 79.4779 27.2517L83.8387 25.5717C83.9813 25.5265 84.1356 25.5945 84.1987 25.7301C84.6401 26.9301 85.9601 27.8901 87.4409 27.8901C89.2409 27.8901 90.0425 27.1701 90.0425 26.2893C90.0425 25.2093 89.2025 24.6479 86.1209 23.8893C82.3193 22.9293 79.6771 21.5687 79.6771 17.5679C79.6771 13.3655 83.1187 11.0039 88.6817 11.0039C93.1241 11.0039 95.7641 12.6839 96.5633 15.3239C96.6041 15.5639 96.6041 15.8039 96.3641 15.8855L91.9217 17.4575C91.6817 17.5775 91.6433 17.5775 91.4825 17.3375C90.8009 16.2575 89.7617 15.5375 88.4417 15.5375C86.8793 15.5375 86.2001 16.0559 86.2001 16.9367C86.2001 17.7383 87.1217 18.0983 90.5609 18.8183C94.5641 19.6175 97.3241 21.3309 97.3241 25.0943Z" fill="white"/>
<path fill-rule="evenodd" clip-rule="evenodd" d="M70.8445 22.183C70.8445 19.5595 69.0541 18.0094 66.8677 18.0094C64.3645 18.0094 62.8141 19.7974 62.8141 22.2622C62.7498 24.4601 64.48 26.2939 66.6781 26.358C66.7412 26.3597 66.8044 26.3599 66.8677 26.3587C69.0541 26.3587 70.8445 24.6883 70.8445 22.183ZM77.1692 31.8169L71.2049 31.8673V29.0377C70.5284 31.1065 68.0249 32.3977 65.5988 32.3977C60.2708 32.3977 56.2172 28.5814 56.2172 22.0633C56.2172 16.0633 60.4316 11.8057 65.4812 11.8057C68.1833 11.8057 70.25 13.5073 70.8476 15.0577V12.1777H77.1692V31.8169Z" fill="white"/>
<path fill-rule="evenodd" clip-rule="evenodd" d="M49.484 11.6397H49.3064L49.2056 11.7861L43.292 20.1527L43.3064 6.80129V6.46769H42.9728L36.5744 6.46289H36.2408V6.79649L36.2168 31.6101V31.9461H36.5504L42.9488 31.9485L43.2824 31.9509V31.6173L43.2896 24.2877L48.4112 31.8093L48.5096 31.9557H48.6872H55.6064H56.2328L55.8848 31.4349L49.5032 21.9069L56.3744 12.1677L56.7296 11.6469H56.0984L49.484 11.6397Z" fill="white"/>
<path fill-rule="evenodd" clip-rule="evenodd" d="M0 3.6984L10.1928 0V31.2552L0 34.9512V3.6984ZM12.9958 23.6749L12.9668 12.1786L24.7172 8.18262V19.7554L17.906 22.033L24.7172 24.332V35.8762L12.9958 31.9858V23.6749Z" fill="white"/>
</svg>
