<svg width="24" height="24" viewBox="0 0 24 24" fill="none" xmlns="http://www.w3.org/2000/svg">
<path d="M18.6168 11.5458C18.5998 11.5299 18.582 11.5149 18.5634 11.501L15.0907 8.02832C15.033 7.96901 14.9642 7.92176 14.8881 7.88929C14.812 7.85683 14.7303 7.83981 14.6475 7.83923C14.5648 7.83864 14.4828 7.8545 14.4063 7.88588C14.3298 7.91726 14.2603 7.96353 14.2018 8.02201C14.1433 8.08049 14.097 8.15002 14.0657 8.22654C14.0343 8.30306 14.0184 8.38506 14.019 8.46776C14.0196 8.55047 14.0366 8.63223 14.0691 8.70831C14.1015 8.78438 14.1488 8.85324 14.2081 8.91089L16.6732 11.376L5.82345 11.3758C5.74051 11.3742 5.65808 11.3892 5.58099 11.4198C5.5039 11.4505 5.43369 11.4962 5.37447 11.5543C5.31526 11.6124 5.26822 11.6817 5.23611 11.7582C5.204 11.8347 5.18746 11.9168 5.18746 11.9998C5.18747 12.0827 5.20401 12.1649 5.23612 12.2414C5.26823 12.3179 5.31527 12.3872 5.37449 12.4453C5.43371 12.5034 5.50392 12.5491 5.58101 12.5798C5.6581 12.6104 5.74053 12.6254 5.82348 12.6238L16.6732 12.6241L14.2082 15.0891C14.1489 15.1467 14.1017 15.2156 14.0692 15.2916C14.0368 15.3677 14.0197 15.4495 14.0192 15.5322C14.0186 15.6149 14.0344 15.6969 14.0658 15.7734C14.0972 15.8499 14.1435 15.9195 14.202 15.9779C14.2605 16.0364 14.33 16.0827 14.4065 16.1141C14.483 16.1455 14.565 16.1613 14.6477 16.1607C14.7304 16.1602 14.8122 16.1431 14.8883 16.1107C14.9643 16.0782 15.0332 16.031 15.0908 15.9717L18.5651 12.4974C18.6374 12.4427 18.6969 12.3728 18.7395 12.2927C18.7821 12.2126 18.8067 12.1242 18.8116 12.0336C18.8165 11.9431 18.8017 11.8525 18.768 11.7683C18.7344 11.684 18.6828 11.6081 18.6168 11.5458Z" fill="white"/>
</svg>
