<svg width="24" height="24" viewBox="0 0 24 24" fill="none" xmlns="http://www.w3.org/2000/svg">
<path d="M18.6168 11.5461C18.5998 11.5301 18.582 11.5152 18.5634 11.5013L15.0907 8.02856C15.033 7.96926 14.9642 7.922 14.8881 7.88954C14.812 7.85708 14.7303 7.84006 14.6475 7.83947C14.5648 7.83889 14.4828 7.85474 14.4063 7.88612C14.3298 7.9175 14.2603 7.96377 14.2018 8.02226C14.1433 8.08074 14.097 8.15026 14.0657 8.22678C14.0343 8.30331 14.0184 8.3853 14.019 8.46801C14.0196 8.55071 14.0366 8.63248 14.0691 8.70855C14.1015 8.78462 14.1488 8.85349 14.2081 8.91114L16.6732 11.3762L5.82345 11.376C5.74051 11.3744 5.65808 11.3894 5.58099 11.4201C5.5039 11.4507 5.43369 11.4964 5.37447 11.5545C5.31526 11.6126 5.26822 11.6819 5.23611 11.7584C5.204 11.8349 5.18746 11.9171 5.18746 12C5.18747 12.083 5.20401 12.1651 5.23612 12.2416C5.26823 12.3181 5.31527 12.3874 5.37449 12.4455C5.43371 12.5036 5.50392 12.5494 5.58101 12.58C5.6581 12.6107 5.74053 12.6257 5.82348 12.6241L16.6732 12.6243L14.2082 15.0893C14.1489 15.147 14.1017 15.2158 14.0692 15.2919C14.0368 15.368 14.0197 15.4497 14.0192 15.5324C14.0186 15.6151 14.0344 15.6971 14.0658 15.7737C14.0972 15.8502 14.1435 15.9197 14.202 15.9782C14.2605 16.0367 14.33 16.0829 14.4065 16.1143C14.483 16.1457 14.565 16.1616 14.6477 16.161C14.7304 16.1604 14.8122 16.1434 14.8883 16.1109C14.9643 16.0785 15.0332 16.0312 15.0908 15.9719L18.5651 12.4977C18.6374 12.4429 18.6969 12.3731 18.7395 12.293C18.7821 12.2129 18.8067 12.1245 18.8116 12.0339C18.8165 11.9433 18.8017 11.8528 18.768 11.7685C18.7344 11.6843 18.6828 11.6083 18.6168 11.5461Z" fill="#00307C"/>
</svg>
