<svg width="285" height="60" viewBox="0 0 285 60" fill="none" xmlns="http://www.w3.org/2000/svg">
<g clip-path="url(#clip0_1812_15985)">
<path d="M70 26.7618V14.3262H73.8593L77.6091 20.7388L81.2704 14.3262H85.148V26.7618H81.887V19.0506H81.8322L77.647 26.0499H77.4279L73.2976 19.0506H73.2259V26.7618H70Z" fill="black"/>
<path d="M87.3555 26.7618L92.0294 14.3262H97.2664L101.922 26.7618H98.4616L97.4476 24.0064H91.7948L90.7808 26.7618H87.3555ZM94.2947 17.2041L92.754 21.3957H96.5052L94.9646 17.2041H94.2947Z" fill="black"/>
<path d="M103.678 25.871V22.7452H103.698C105.654 23.7587 107.792 24.3095 109.55 24.3095C111.072 24.3095 111.852 23.9005 111.852 23.1886C111.852 22.4767 111.272 22.266 108.464 21.7869C105.892 21.36 103.645 20.6137 103.645 18.1089C103.645 15.9057 105.564 14.022 109.587 14.022C111.182 14.022 112.957 14.3951 114.407 15.0878V18.197H114.388C112.921 17.3268 110.946 16.776 109.334 16.776C107.722 16.776 107.05 17.2221 107.05 17.8789C107.05 18.3223 107.341 18.606 107.921 18.7313C108.518 18.8566 109.334 19.015 110.384 19.2105C112.975 19.6374 115.239 20.3658 115.239 23.0317C115.239 24.8066 114.026 27.0635 109.442 27.0635C107.14 27.0635 105.347 26.5843 103.68 25.8724L103.678 25.871Z" fill="black"/>
<path d="M117.701 26.7618V14.3262H121.017V18.9446H126.997V14.3262H130.331V26.7618H126.997V21.806H121.017V26.7618H117.701Z" fill="black"/>
<path d="M133.68 21.9272V14.3262H137.014V21.7151C137.014 23.5631 138.409 24.1676 139.948 24.1676C141.487 24.1676 142.901 23.5989 142.901 21.7881V14.3262H146.217V21.857C146.217 25.7125 143.535 27.0964 139.93 27.0964C136.325 27.0964 133.679 25.7125 133.679 21.9272H133.68Z" fill="black"/>
<path d="M149.568 26.7618V14.3262H156.67C159.732 14.3262 161.364 16.0667 161.364 18.8909C161.364 22.0869 159.262 23.5617 156.399 23.5617H152.884V26.7604H149.568V26.7618ZM152.883 20.8449H156.217C157.503 20.8449 158.065 20.0448 158.065 18.9625C158.065 17.7535 157.449 17.0802 156.162 17.0802H152.881V20.8462L152.883 20.8449Z" fill="black"/>
<path d="M82.3345 45.6368L77.9316 33.2012H81.5185L84.7613 42.6171H85.2866L88.5293 33.2012H92.0797L87.6783 45.6368H82.3331H82.3345Z" fill="black"/>
<path d="M94.29 45.6368V33.2012H105.125L105.251 35.9538H97.5876V37.9449H103.676V40.5557H97.5876V42.8828H105.487L105.379 45.6368H94.2914H94.29Z" fill="black"/>
<path d="M108.259 45.6368V33.2012H111.791L117.699 40.8407H117.771V33.2012H120.959V45.6368H117.571L111.52 37.7673H111.447V45.6368H108.259Z" fill="black"/>
<path d="M127.898 45.6364V36.0801H123.386L123.512 33.2021H135.615L135.724 36.0801H131.211V45.6364H127.895H127.898Z" fill="black"/>
<path d="M138.042 40.8045V33.2021H141.376V40.5911C141.376 42.439 142.771 43.0435 144.31 43.0435C145.85 43.0435 147.264 42.4748 147.264 40.6627V33.2021H150.58V40.7343C150.58 44.5885 147.897 45.9738 144.292 45.9738C140.687 45.9738 138.041 44.5885 138.041 40.8045H138.042Z" fill="black"/>
<path d="M153.93 45.6368V33.2012H161.014C164.33 33.2012 165.942 34.7462 165.942 37.5704C165.942 39.5767 165.036 40.9633 163.351 41.5485L166.467 45.6354H162.645L160.126 42.1709H157.245V45.6354H153.929L153.93 45.6368ZM157.246 39.5092H160.725C162.102 39.5092 162.609 38.7271 162.609 37.7136C162.609 36.7001 162.102 35.9552 160.725 35.9552H157.246V39.5092Z" fill="black"/>
<path d="M168.749 45.6368V33.2012H179.584L179.71 35.9538H172.047V37.9449H178.135V40.5557H172.047V42.8828H179.946L179.838 45.6368H168.75H168.749Z" fill="black"/>
<path d="M182.337 44.7485V41.6227H182.357C184.313 42.6362 186.451 43.1856 188.209 43.1856C189.73 43.1856 190.511 42.7766 190.511 42.0661C190.511 41.3197 189.931 41.1435 187.124 40.6629C184.551 40.236 182.304 39.4911 182.304 36.985C182.304 34.7831 184.224 32.8994 188.246 32.8994C189.841 32.8994 191.616 33.2712 193.066 33.9652V37.0745H193.047C191.58 36.2042 189.605 35.6534 187.993 35.6534C186.381 35.6534 185.709 36.0982 185.709 36.755C185.709 37.1984 186 37.4834 186.58 37.6074C187.177 37.7327 187.993 37.8924 189.043 38.0879C191.635 38.5148 193.899 39.2419 193.899 41.9077C193.899 43.684 192.685 45.9409 188.101 45.9409C185.799 45.9409 184.006 45.4604 182.339 44.7498L182.337 44.7485Z" fill="black"/>
<path d="M216 45.9999L211.19 32.4158C210.678 30.97 209.288 30.002 207.728 30.002H204.486L209.372 43.7995C209.839 45.1172 211.105 46.0013 212.528 46.0013H216V45.9999Z" fill="black"/>
<path d="M204.471 29.9994L199.661 16.4153C199.15 14.9695 197.76 14.0015 196.199 14.0015H192.958L197.844 27.799C198.31 29.1167 199.577 30.0008 201 30.0008H204.471V29.9994Z" fill="black"/>
</g>
<defs>
<clipPath id="clip0_1812_15985">
<rect width="146" height="32" fill="white" transform="translate(70 14)"/>
</clipPath>
</defs>
</svg>
