<svg width="28" height="28" viewBox="0 0 28 28" fill="none" xmlns="http://www.w3.org/2000/svg">
<path fill-rule="evenodd" clip-rule="evenodd" d="M13.6931 1.51409C13.8912 1.4398 14.1095 1.4398 14.3076 1.51409L23.6409 5.01409C23.9824 5.14216 24.2087 5.46864 24.2087 5.83337V14C24.2087 17.8907 21.6288 21.0295 19.2432 23.1169C18.032 24.1767 16.8249 25.0061 15.9224 25.5702C15.4702 25.8528 15.0922 26.0702 14.8251 26.2181C14.6916 26.292 14.5856 26.3486 14.5119 26.3873C14.475 26.4067 14.4462 26.4216 14.4259 26.4319L14.4021 26.4441L14.3952 26.4476L14.393 26.4487L14.3922 26.4491C14.3919 26.4492 14.3916 26.4493 14.0003 25.6667C13.609 26.4493 13.6088 26.4492 13.6084 26.4491L13.6077 26.4487L13.6055 26.4476L13.5985 26.4441L13.5747 26.4319C13.5545 26.4216 13.5257 26.4067 13.4888 26.3873C13.415 26.3486 13.3091 26.292 13.1755 26.2181C12.9085 26.0702 12.5304 25.8528 12.0782 25.5702C11.1757 25.0061 9.96866 24.1767 8.75747 23.1169C6.37185 21.0295 3.79199 17.8907 3.79199 14V5.83337C3.79199 5.46864 4.01824 5.14216 4.35976 5.01409L13.6931 1.51409ZM14.0003 25.6667L13.609 26.4493C13.8554 26.5725 14.1453 26.5725 14.3916 26.4493L14.0003 25.6667ZM14.0003 24.6744C14.2426 24.5398 14.5851 24.3423 14.9949 24.0862C15.8424 23.5565 16.9687 22.7817 18.0908 21.7999C20.3719 19.804 22.4587 17.1094 22.4587 14V6.43975L14.0003 3.26787L5.54199 6.43975V14C5.54199 17.1094 7.6288 19.804 9.90985 21.7999C11.032 22.7817 12.1583 23.5565 13.0057 24.0862C13.4156 24.3423 13.758 24.5398 14.0003 24.6744Z" fill="#373B41"/>
<path fill-rule="evenodd" clip-rule="evenodd" d="M19.3138 10.4948C19.6389 10.8524 19.6125 11.4058 19.2549 11.7308L12.8383 17.5642C12.5045 17.8676 11.9948 17.8676 11.6611 17.5642L8.74443 14.9126C8.38685 14.5876 8.3605 14.0342 8.68557 13.6766C9.01063 13.319 9.56403 13.2927 9.9216 13.6177L12.2497 15.7342L18.0778 10.4359C18.4353 10.1109 18.9887 10.1372 19.3138 10.4948Z" fill="#373B41"/>
</svg>
